<?xml version="1.0" standalone="no"?>
<!DOCTYPE svg PUBLIC "-//W3C//DTD SVG 20010904//EN"
 "http://www.w3.org/TR/2001/REC-SVG-20010904/DTD/svg10.dtd">
<svg version="1.0" xmlns="http://www.w3.org/2000/svg"
 width="1000.000000pt" height="1000.000000pt" viewBox="0 0 1000.000000 1000.000000"
 preserveAspectRatio="xMidYMid meet">
<metadata>
Created by potrace 1.14, written by Peter Selinger 2001-2017
</metadata>
<g transform="translate(0.000000,1000.000000) scale(0.100000,-0.100000)"
fill="#000000" stroke="none">
<path d="M1420 5050 l0 -1420 370 0 370 0 0 1420 0 1420 -370 0 -370 0 0
-1420z"/>
<path d="M2410 5050 l0 -1420 325 0 325 0 2 928 3 927 135 -927 135 -928 232
0 c162 0 233 3 233 11 0 25 252 1874 256 1878 2 2 4 -422 4 -942 l0 -947 325
0 325 0 0 1420 0 1420 -487 -2 -487 -3 -82 -636 c-45 -351 -84 -645 -86 -655
-4 -20 -7 -2 -118 771 -39 270 -73 498 -76 508 -5 16 -37 17 -485 17 l-479 0
0 -1420z"/>
<path d="M4960 5050 l0 -1420 638 0 c526 0 648 3 700 15 191 45 342 197 381
383 8 37 11 355 11 1030 0 1075 2 1034 -61 1153 -53 99 -148 184 -260 231
l-54 23 -677 3 -678 3 0 -1421z m904 916 c46 -20 65 -46 76 -109 17 -88 8
-1570 -9 -1622 -24 -74 -60 -97 -173 -111 l-58 -6 0 937 0 938 66 -7 c37 -4
81 -13 98 -20z"/>
<path d="M6942 5053 l3 -1418 347 -3 347 -2 10 37 c5 21 15 59 22 86 l11 47
65 -60 c70 -66 149 -110 233 -131 78 -19 232 -16 305 5 171 50 304 188 350
361 22 87 23 1312 0 1398 -45 172 -180 310 -354 361 -63 18 -231 21 -301 5
-75 -17 -167 -67 -230 -126 l-60 -55 0 456 0 456 -375 0 -375 0 2 -1417z m926
237 c26 -12 47 -30 55 -47 17 -40 18 -1086 0 -1125 -7 -15 -24 -35 -38 -44
-34 -22 -120 -22 -163 0 l-32 17 0 588 c0 641 -4 603 57 621 45 13 75 11 121
-10z"/>
</g>
</svg>
